<svg version="1.2" xmlns="http://www.w3.org/2000/svg" viewBox="0 0 512 400"><style>tspan{white-space:pre}.a{fill:#0bf;stroke:#000;paint-order:stroke fill markers;stroke-linejoin:round;stroke-width:2}.b{font-size: 12px;fill: #000000;font-weight: 400;font-family: "OpenSans-Regular", "Open Sans"}.c{fill:#09c;stroke:#000;paint-order:stroke fill markers;stroke-linejoin:round;stroke-width:2}.d{fill:#f00}.e{font-size: 12px;fill: #ff0000;font-weight: 400;font-family: "OpenSans-Regular", "Open Sans"}</style><path class="a" d="m39 38h107v70h-107zm0 0h107v70h-107z"/><text style="transform:matrix(1,0,0,1,41,49)" ><tspan x="0" y="0" class="b">(</tspan><tspan  y="0" class="b">0</tspan><tspan  y="0" class="b">,</tspan><tspan  y="0" class="b">0</tspan><tspan  y="0" class="b">)</tspan><tspan  y="0" class="b">
</tspan><tspan x="0" y="14.4" class="b">1</tspan><tspan  y="14.4" class="b">2</tspan><tspan  y="14.4" class="b">8</tspan><tspan  y="14.4" class="b">0</tspan><tspan  y="14.4" class="b">x</tspan><tspan  y="14.4" class="b">1</tspan><tspan  y="14.4" class="b">0</tspan><tspan  y="14.4" class="b">2</tspan><tspan  y="14.4" class="b">4</tspan><tspan  y="14.4" class="b">
</tspan><tspan x="0" y="28.8" class="b">P</tspan><tspan  y="28.8" class="b">r</tspan><tspan  y="28.8" class="b">i</tspan><tspan  y="28.8" class="b">m</tspan><tspan  y="28.8" class="b">a</tspan><tspan  y="28.8" class="b">r</tspan><tspan  y="28.8" class="b">y
</tspan></text><path class="c" d="m147 38h107v70h-107zm0 0h107v70h-107z"/><text style="transform:matrix(1,0,0,1,149,49)" ><tspan x="0" y="0" class="b">(</tspan><tspan  y="0" class="b">1</tspan><tspan  y="0" class="b">2</tspan><tspan  y="0" class="b">8</tspan><tspan  y="0" class="b">0</tspan><tspan  y="0" class="b">,</tspan><tspan  y="0" class="b">0</tspan><tspan  y="0" class="b">)</tspan><tspan  y="0" class="b">
</tspan><tspan x="0" y="14.4" class="b">1</tspan><tspan  y="14.4" class="b">2</tspan><tspan  y="14.4" class="b">8</tspan><tspan  y="14.4" class="b">0</tspan><tspan  y="14.4" class="b">x</tspan><tspan  y="14.4" class="b">1</tspan><tspan  y="14.4" class="b">0</tspan><tspan  y="14.4" class="b">2</tspan><tspan  y="14.4" class="b">4</tspan><tspan  y="14.4" class="b">
</tspan></text><path class="d" d="m39.1 67h-1v-58.9h1z"/><path class="d" d="m8 38.1v-1h58.9v1z"/><text style="transform:matrix(1,0,0,1,43,28)" ><tspan x="0" y="0" class="e">(</tspan><tspan  y="0" class="e">0</tspan><tspan  y="0" class="e">,</tspan><tspan  y="0" class="e">0</tspan><tspan  y="0" class="e">)</tspan><tspan  y="0" class="e">
</tspan></text><path class="c" d="m285 38h107v70h-107zm0 0h107v70h-107z"/><text style="transform:matrix(1,0,0,1,287,49)" ><tspan x="0" y="0" class="b">(</tspan><tspan  y="0" class="b">-</tspan><tspan  y="0" class="b">1</tspan><tspan  y="0" class="b">2</tspan><tspan  y="0" class="b">8</tspan><tspan  y="0" class="b">0</tspan><tspan  y="0" class="b">,</tspan><tspan  y="0" class="b">0</tspan><tspan  y="0" class="b">)</tspan><tspan  y="0" class="b">
</tspan><tspan x="0" y="14.4" class="b">1</tspan><tspan  y="14.4" class="b">2</tspan><tspan  y="14.4" class="b">8</tspan><tspan  y="14.4" class="b">0</tspan><tspan  y="14.4" class="b">x</tspan><tspan  y="14.4" class="b">1</tspan><tspan  y="14.4" class="b">0</tspan><tspan  y="14.4" class="b">2</tspan><tspan  y="14.4" class="b">4</tspan><tspan  y="14.4" class="b">
</tspan></text><path class="a" d="m393 38h107v70h-107zm0 0h107v70h-107z"/><text style="transform:matrix(1,0,0,1,395,49)" ><tspan x="0" y="0" class="b">(</tspan><tspan  y="0" class="b">0</tspan><tspan  y="0" class="b">,</tspan><tspan  y="0" class="b">0</tspan><tspan  y="0" class="b">)</tspan><tspan  y="0" class="b">
</tspan><tspan x="0" y="14.4" class="b">1</tspan><tspan  y="14.4" class="b">2</tspan><tspan  y="14.4" class="b">8</tspan><tspan  y="14.4" class="b">0</tspan><tspan  y="14.4" class="b">x</tspan><tspan  y="14.4" class="b">1</tspan><tspan  y="14.4" class="b">0</tspan><tspan  y="14.4" class="b">2</tspan><tspan  y="14.4" class="b">4</tspan><tspan  y="14.4" class="b">
</tspan><tspan x="0" y="28.8" class="b">P</tspan><tspan  y="28.8" class="b">r</tspan><tspan  y="28.8" class="b">i</tspan><tspan  y="28.8" class="b">m</tspan><tspan  y="28.8" class="b">a</tspan><tspan  y="28.8" class="b">r</tspan><tspan  y="28.8" class="b">y</tspan><tspan  y="28.8" class="b">
</tspan></text><path class="d" d="m393.1 67h-1v-58.9h1z"/><path class="d" d="m362 38.1v-1h58.9v1z"/><text style="transform:matrix(1,0,0,1,397,28)" ><tspan x="0" y="0" class="e">(</tspan><tspan  y="0" class="e">0</tspan><tspan  y="0" class="e">,</tspan><tspan  y="0" class="e">0</tspan><tspan  y="0" class="e">)</tspan><tspan  y="0" class="e">
</tspan></text><path class="a" d="m39 175h107v70h-107zm0 0h107v70h-107z"/><text style="transform:matrix(1,0,0,1,41,186)" ><tspan x="0" y="0" class="b">(</tspan><tspan  y="0" class="b">0</tspan><tspan  y="0" class="b">,</tspan><tspan  y="0" class="b">2</tspan><tspan  y="0" class="b">5</tspan><tspan  y="0" class="b">6</tspan><tspan  y="0" class="b">)</tspan><tspan  y="0" class="b">
</tspan><tspan x="0" y="14.4" class="b">1</tspan><tspan  y="14.4" class="b">2</tspan><tspan  y="14.4" class="b">8</tspan><tspan  y="14.4" class="b">0</tspan><tspan  y="14.4" class="b">x</tspan><tspan  y="14.4" class="b">1</tspan><tspan  y="14.4" class="b">0</tspan><tspan  y="14.4" class="b">2</tspan><tspan  y="14.4" class="b">4</tspan><tspan  y="14.4" class="b">
</tspan><tspan x="0" y="28.8" class="b">P</tspan><tspan  y="28.8" class="b">r</tspan><tspan  y="28.8" class="b">i</tspan><tspan  y="28.8" class="b">m</tspan><tspan  y="28.8" class="b">a</tspan><tspan  y="28.8" class="b">r</tspan><tspan  y="28.8" class="b">y
</tspan></text><path class="c" d="m147 155h107v70h-107zm0 0h107v70h-107z"/><text style="transform:matrix(1,0,0,1,149,166)" ><tspan x="0" y="0" class="b">(</tspan><tspan  y="0" class="b">1</tspan><tspan  y="0" class="b">2</tspan><tspan  y="0" class="b">8</tspan><tspan  y="0" class="b">0</tspan><tspan  y="0" class="b">,</tspan><tspan  y="0" class="b">0</tspan><tspan  y="0" class="b">)</tspan><tspan  y="0" class="b">
</tspan><tspan x="0" y="14.4" class="b">1</tspan><tspan  y="14.4" class="b">2</tspan><tspan  y="14.4" class="b">8</tspan><tspan  y="14.4" class="b">0</tspan><tspan  y="14.4" class="b">x</tspan><tspan  y="14.4" class="b">1</tspan><tspan  y="14.4" class="b">0</tspan><tspan  y="14.4" class="b">2</tspan><tspan  y="14.4" class="b">4</tspan><tspan  y="14.4" class="b">
</tspan></text><path class="d" d="m39.1 184h-1v-58.9h1z"/><path class="d" d="m8 155.1v-1h58.9v1z"/><text style="transform:matrix(1,0,0,1,43,145)" ><tspan x="0" y="0" class="e">(</tspan><tspan  y="0" class="e">0</tspan><tspan  y="0" class="e">,</tspan><tspan  y="0" class="e">0</tspan><tspan  y="0" class="e">)</tspan><tspan  y="0" class="e">
</tspan></text><path class="a" d="m297 197h107v70h-107zm0 0h107v70h-107z"/><text style="transform:matrix(1,0,0,1,299,208)" ><tspan x="0" y="0" class="b">(</tspan><tspan  y="0" class="b">0</tspan><tspan  y="0" class="b">,</tspan><tspan  y="0" class="b">0</tspan><tspan  y="0" class="b">)</tspan><tspan  y="0" class="b">
</tspan><tspan x="0" y="14.4" class="b">1</tspan><tspan  y="14.4" class="b">2</tspan><tspan  y="14.4" class="b">8</tspan><tspan  y="14.4" class="b">0</tspan><tspan  y="14.4" class="b">x</tspan><tspan  y="14.4" class="b">1</tspan><tspan  y="14.4" class="b">0</tspan><tspan  y="14.4" class="b">2</tspan><tspan  y="14.4" class="b">4</tspan><tspan  y="14.4" class="b">
</tspan><tspan x="0" y="28.8" class="b">P</tspan><tspan  y="28.8" class="b">r</tspan><tspan  y="28.8" class="b">i</tspan><tspan  y="28.8" class="b">m</tspan><tspan  y="28.8" class="b">a</tspan><tspan  y="28.8" class="b">r</tspan><tspan  y="28.8" class="b">y
</tspan></text><path class="c" d="m283 133h136v63h-136zm0 0h136v63h-136z"/><text style="transform:matrix(1,0,0,1,285,144)" ><tspan x="0" y="0" class="b">(</tspan><tspan  y="0" class="b">-</tspan><tspan  y="0" class="b">3</tspan><tspan  y="0" class="b">2</tspan><tspan  y="0" class="b">0</tspan><tspan  y="0" class="b">,</tspan><tspan  y="0" class="b">-</tspan><tspan  y="0" class="b">1</tspan><tspan  y="0" class="b">0</tspan><tspan  y="0" class="b">8</tspan><tspan  y="0" class="b">0</tspan><tspan  y="0" class="b">)</tspan><tspan  y="0" class="b">
</tspan><tspan x="0" y="14.4" class="b">1</tspan><tspan  y="14.4" class="b">9</tspan><tspan  y="14.4" class="b">2</tspan><tspan  y="14.4" class="b">0</tspan><tspan  y="14.4" class="b">x</tspan><tspan  y="14.4" class="b">1</tspan><tspan  y="14.4" class="b">0</tspan><tspan  y="14.4" class="b">8</tspan><tspan  y="14.4" class="b">0</tspan><tspan  y="14.4" class="b">
</tspan></text><path class="d" d="m297.1 226h-1v-58.9h1z"/><path class="d" d="m266 197.1v-1h58.9v1z"/><text style="transform:matrix(1,0,0,1,301,187)" ><tspan x="0" y="0" class="e">(</tspan><tspan  y="0" class="e">0</tspan><tspan  y="0" class="e">,</tspan><tspan  y="0" class="e">0</tspan><tspan  y="0" class="e">)</tspan><tspan  y="0" class="e">
</tspan></text><path class="a" d="m39 303h107v70h-107zm0 0h107v70h-107z"/><text style="transform:matrix(1,0,0,1,41,314)" ><tspan x="0" y="0" class="b">(</tspan><tspan  y="0" class="b">0</tspan><tspan  y="0" class="b">,</tspan><tspan  y="0" class="b">0</tspan><tspan  y="0" class="b">)</tspan><tspan  y="0" class="b">
</tspan><tspan x="0" y="14.4" class="b">1</tspan><tspan  y="14.4" class="b">2</tspan><tspan  y="14.4" class="b">8</tspan><tspan  y="14.4" class="b">0</tspan><tspan  y="14.4" class="b">x</tspan><tspan  y="14.4" class="b">1</tspan><tspan  y="14.4" class="b">0</tspan><tspan  y="14.4" class="b">2</tspan><tspan  y="14.4" class="b">4</tspan><tspan  y="14.4" class="b">
</tspan><tspan x="0" y="28.8" class="b">P</tspan><tspan  y="28.8" class="b">r</tspan><tspan  y="28.8" class="b">i</tspan><tspan  y="28.8" class="b">m</tspan><tspan  y="28.8" class="b">a</tspan><tspan  y="28.8" class="b">r</tspan><tspan  y="28.8" class="b">y
</tspan></text><path class="c" d="m152 313h64v77h-64zm0 0h64v77h-64z"/><text style="transform:matrix(1,0,0,1,154,324)" ><tspan x="0" y="0" class="b">(</tspan><tspan  y="0" class="b">1</tspan><tspan  y="0" class="b">3</tspan><tspan  y="0" class="b">0</tspan><tspan  y="0" class="b">0</tspan><tspan  y="0" class="b">,</tspan><tspan  y="0" class="b">2</tspan><tspan  y="0" class="b">5</tspan><tspan  y="0" class="b">6</tspan><tspan  y="0" class="b">)</tspan><tspan  y="0" class="b">
</tspan><tspan x="0" y="14.4" class="b">6</tspan><tspan  y="14.4" class="b">4</tspan><tspan  y="14.4" class="b">0</tspan><tspan  y="14.4" class="b">x</tspan><tspan  y="14.4" class="b">7</tspan><tspan  y="14.4" class="b">6</tspan><tspan  y="14.4" class="b">8</tspan><tspan  y="14.4" class="b">
</tspan></text><path class="d" d="m39.1 332h-1v-58.9h1z"/><path class="d" d="m8 303.1v-1h58.9v1z"/><text style="transform:matrix(1,0,0,1,43,293)" ><tspan x="0" y="0" class="e">(</tspan><tspan  y="0" class="e">0</tspan><tspan  y="0" class="e">,</tspan><tspan  y="0" class="e">0</tspan><tspan  y="0" class="e">)</tspan><tspan  y="0" class="e">
</tspan></text></svg>