<svg version="1.2" baseProfile="tiny-ps" xmlns="http://www.w3.org/2000/svg" viewBox="0 0 512 401"><title>New Project</title><style>tspan { white-space:pre }.s0 { fill: #00bbff;stroke: #000000;paint-order:stroke fill markers;stroke-linejoin:round;stroke-width: 2 } .t1 { font-size: 12px;fill: #000000;font-weight: 400;font-family: "OpenSans-Regular", "Open Sans" } .s2 { fill: #0099cc;stroke: #000000;paint-order:stroke fill markers;stroke-linejoin:round;stroke-width: 2 } .s3 { fill: #ff0000 } .t4 { font-size: 12px;fill: #ff0000;font-weight: 400;font-family: "OpenSans-Regular", "Open Sans" } </style><g ><path class="s0" d="m39 39h107v70h-107v-70zm0 0h107v70h-107v-70z" /><text style="transform: matrix(1,0,0,1,41,50)" ><tspan x="0" y="0" class="t1">(</tspan><tspan  y="0" class="t1">0</tspan><tspan  y="0" class="t1">,</tspan><tspan  y="0" class="t1">0</tspan><tspan  y="0" class="t1">)</tspan><tspan  y="0" class="t1">
</tspan><tspan x="0" y="14.4" class="t1">1</tspan><tspan  y="14.4" class="t1">2</tspan><tspan  y="14.4" class="t1">8</tspan><tspan  y="14.4" class="t1">0</tspan><tspan  y="14.4" class="t1">x</tspan><tspan  y="14.4" class="t1">1</tspan><tspan  y="14.4" class="t1">0</tspan><tspan  y="14.4" class="t1">2</tspan><tspan  y="14.4" class="t1">4</tspan><tspan  y="14.4" class="t1">
</tspan><tspan x="0" y="28.8" class="t1">P</tspan><tspan  y="28.8" class="t1">r</tspan><tspan  y="28.8" class="t1">i</tspan><tspan  y="28.8" class="t1">m</tspan><tspan  y="28.8" class="t1">a</tspan><tspan  y="28.8" class="t1">r</tspan><tspan  y="28.8" class="t1">y
</tspan></text><path class="s2" d="m147 39h107v70h-107v-70zm0 0h107v70h-107v-70z" /><text style="transform: matrix(1,0,0,1,149,50)" ><tspan x="0" y="0" class="t1">(</tspan><tspan  y="0" class="t1">1</tspan><tspan  y="0" class="t1">2</tspan><tspan  y="0" class="t1">8</tspan><tspan  y="0" class="t1">0</tspan><tspan  y="0" class="t1">,</tspan><tspan  y="0" class="t1">0</tspan><tspan  y="0" class="t1">)</tspan><tspan  y="0" class="t1">
</tspan><tspan x="0" y="14.4" class="t1">1</tspan><tspan  y="14.4" class="t1">2</tspan><tspan  y="14.4" class="t1">8</tspan><tspan  y="14.4" class="t1">0</tspan><tspan  y="14.4" class="t1">x</tspan><tspan  y="14.4" class="t1">1</tspan><tspan  y="14.4" class="t1">0</tspan><tspan  y="14.4" class="t1">2</tspan><tspan  y="14.4" class="t1">4</tspan><tspan  y="14.4" class="t1">
</tspan></text><path class="s3" d="m39.06 68.01h-1l0-58.88h1l0 58.88z" /><path class="s3" d="m7.99 39.06v-1l58.88 0v1l-58.88 0z" /><text style="transform: matrix(1,0,0,1,43,29)" ><tspan x="0" y="0" class="t4">(</tspan><tspan  y="0" class="t4">0</tspan><tspan  y="0" class="t4">,</tspan><tspan  y="0" class="t4">0</tspan><tspan  y="0" class="t4">)</tspan><tspan  y="0" class="t4">
</tspan></text></g><g ><path class="s0" d="m285 39h107v70h-107v-70zm0 0h107v70h-107v-70z" /><text style="transform: matrix(1,0,0,1,287,50)" ><tspan x="0" y="0" class="t1">(</tspan><tspan  y="0" class="t1">-</tspan><tspan  y="0" class="t1">1</tspan><tspan  y="0" class="t1">2</tspan><tspan  y="0" class="t1">8</tspan><tspan  y="0" class="t1">0</tspan><tspan  y="0" class="t1">,</tspan><tspan  y="0" class="t1">0</tspan><tspan  y="0" class="t1">)</tspan><tspan  y="0" class="t1">
</tspan><tspan x="0" y="14.4" class="t1">1</tspan><tspan  y="14.4" class="t1">2</tspan><tspan  y="14.4" class="t1">8</tspan><tspan  y="14.4" class="t1">0</tspan><tspan  y="14.4" class="t1">x</tspan><tspan  y="14.4" class="t1">1</tspan><tspan  y="14.4" class="t1">0</tspan><tspan  y="14.4" class="t1">2</tspan><tspan  y="14.4" class="t1">4</tspan><tspan  y="14.4" class="t1">
</tspan></text><path class="s2" d="m393 39h107v70h-107v-70zm0 0h107v70h-107v-70z" /><text style="transform: matrix(1,0,0,1,395,50)" ><tspan x="0" y="0" class="t1">(</tspan><tspan  y="0" class="t1">0</tspan><tspan  y="0" class="t1">,</tspan><tspan  y="0" class="t1">0</tspan><tspan  y="0" class="t1">)</tspan><tspan  y="0" class="t1">
</tspan><tspan x="0" y="14.4" class="t1">1</tspan><tspan  y="14.4" class="t1">2</tspan><tspan  y="14.4" class="t1">8</tspan><tspan  y="14.4" class="t1">0</tspan><tspan  y="14.4" class="t1">x</tspan><tspan  y="14.4" class="t1">1</tspan><tspan  y="14.4" class="t1">0</tspan><tspan  y="14.4" class="t1">2</tspan><tspan  y="14.4" class="t1">4</tspan><tspan  y="14.4" class="t1">
</tspan><tspan x="0" y="28.8" class="t1">P</tspan><tspan  y="28.8" class="t1">r</tspan><tspan  y="28.8" class="t1">i</tspan><tspan  y="28.8" class="t1">m</tspan><tspan  y="28.8" class="t1">a</tspan><tspan  y="28.8" class="t1">r</tspan><tspan  y="28.8" class="t1">y</tspan><tspan  y="28.8" class="t1">
</tspan></text><path class="s3" d="m393.06 68.01h-1v-58.88h1v58.88z" /><path class="s3" d="m361.99 39.06v-1l58.88 0v1l-58.88 0z" /><text style="transform: matrix(1,0,0,1,397,29)" ><tspan x="0" y="0" class="t4">(</tspan><tspan  y="0" class="t4">0</tspan><tspan  y="0" class="t4">,</tspan><tspan  y="0" class="t4">0</tspan><tspan  y="0" class="t4">)</tspan><tspan  y="0" class="t4">
</tspan></text></g><g ><path class="s0" d="m39 176h107v70h-107v-70zm0 0h107v70h-107v-70z" /><text style="transform: matrix(1,0,0,1,41,187)" ><tspan x="0" y="0" class="t1">(</tspan><tspan  y="0" class="t1">0</tspan><tspan  y="0" class="t1">,</tspan><tspan  y="0" class="t1">2</tspan><tspan  y="0" class="t1">5</tspan><tspan  y="0" class="t1">6</tspan><tspan  y="0" class="t1">)</tspan><tspan  y="0" class="t1">
</tspan><tspan x="0" y="14.4" class="t1">1</tspan><tspan  y="14.4" class="t1">2</tspan><tspan  y="14.4" class="t1">8</tspan><tspan  y="14.4" class="t1">0</tspan><tspan  y="14.4" class="t1">x</tspan><tspan  y="14.4" class="t1">1</tspan><tspan  y="14.4" class="t1">0</tspan><tspan  y="14.4" class="t1">2</tspan><tspan  y="14.4" class="t1">4</tspan><tspan  y="14.4" class="t1">
</tspan><tspan x="0" y="28.8" class="t1">P</tspan><tspan  y="28.8" class="t1">r</tspan><tspan  y="28.8" class="t1">i</tspan><tspan  y="28.8" class="t1">m</tspan><tspan  y="28.8" class="t1">a</tspan><tspan  y="28.8" class="t1">r</tspan><tspan  y="28.8" class="t1">y
</tspan></text><path class="s2" d="m147 156h107v70h-107v-70zm0 0h107v70h-107v-70z" /><text style="transform: matrix(1,0,0,1,149,167)" ><tspan x="0" y="0" class="t1">(</tspan><tspan  y="0" class="t1">1</tspan><tspan  y="0" class="t1">2</tspan><tspan  y="0" class="t1">8</tspan><tspan  y="0" class="t1">0</tspan><tspan  y="0" class="t1">,</tspan><tspan  y="0" class="t1">0</tspan><tspan  y="0" class="t1">)</tspan><tspan  y="0" class="t1">
</tspan><tspan x="0" y="14.4" class="t1">1</tspan><tspan  y="14.4" class="t1">2</tspan><tspan  y="14.4" class="t1">8</tspan><tspan  y="14.4" class="t1">0</tspan><tspan  y="14.4" class="t1">x</tspan><tspan  y="14.4" class="t1">1</tspan><tspan  y="14.4" class="t1">0</tspan><tspan  y="14.4" class="t1">2</tspan><tspan  y="14.4" class="t1">4</tspan><tspan  y="14.4" class="t1">
</tspan></text><path class="s3" d="m39.06 185.01h-1l0-58.88h1l0 58.88z" /><path class="s3" d="m7.99 156.06v-1h58.88v1h-58.88z" /><text style="transform: matrix(1,0,0,1,43,146)" ><tspan x="0" y="0" class="t4">(</tspan><tspan  y="0" class="t4">0</tspan><tspan  y="0" class="t4">,</tspan><tspan  y="0" class="t4">0</tspan><tspan  y="0" class="t4">)</tspan><tspan  y="0" class="t4">
</tspan></text></g><g ><path class="s0" d="m297 198h107v70h-107v-70zm0 0h107v70h-107v-70z" /><text style="transform: matrix(1,0,0,1,299,209)" ><tspan x="0" y="0" class="t1">(</tspan><tspan  y="0" class="t1">0</tspan><tspan  y="0" class="t1">,</tspan><tspan  y="0" class="t1">0</tspan><tspan  y="0" class="t1">)</tspan><tspan  y="0" class="t1">
</tspan><tspan x="0" y="14.4" class="t1">1</tspan><tspan  y="14.4" class="t1">2</tspan><tspan  y="14.4" class="t1">8</tspan><tspan  y="14.4" class="t1">0</tspan><tspan  y="14.4" class="t1">x</tspan><tspan  y="14.4" class="t1">1</tspan><tspan  y="14.4" class="t1">0</tspan><tspan  y="14.4" class="t1">2</tspan><tspan  y="14.4" class="t1">4</tspan><tspan  y="14.4" class="t1">
</tspan><tspan x="0" y="28.8" class="t1">P</tspan><tspan  y="28.8" class="t1">r</tspan><tspan  y="28.8" class="t1">i</tspan><tspan  y="28.8" class="t1">m</tspan><tspan  y="28.8" class="t1">a</tspan><tspan  y="28.8" class="t1">r</tspan><tspan  y="28.8" class="t1">y
</tspan></text><path class="s2" d="m283 134h136v63h-136v-63zm0 0h136v63h-136v-63z" /><text style="transform: matrix(1,0,0,1,285,145)" ><tspan x="0" y="0" class="t1">(</tspan><tspan  y="0" class="t1">-</tspan><tspan  y="0" class="t1">3</tspan><tspan  y="0" class="t1">2</tspan><tspan  y="0" class="t1">0</tspan><tspan  y="0" class="t1">,</tspan><tspan  y="0" class="t1">-</tspan><tspan  y="0" class="t1">1</tspan><tspan  y="0" class="t1">0</tspan><tspan  y="0" class="t1">8</tspan><tspan  y="0" class="t1">0</tspan><tspan  y="0" class="t1">)</tspan><tspan  y="0" class="t1">
</tspan><tspan x="0" y="14.4" class="t1">1</tspan><tspan  y="14.4" class="t1">9</tspan><tspan  y="14.4" class="t1">2</tspan><tspan  y="14.4" class="t1">0</tspan><tspan  y="14.4" class="t1">x</tspan><tspan  y="14.4" class="t1">1</tspan><tspan  y="14.4" class="t1">0</tspan><tspan  y="14.4" class="t1">8</tspan><tspan  y="14.4" class="t1">0</tspan><tspan  y="14.4" class="t1">
</tspan></text><path class="s3" d="m297.06 227.01h-1v-58.88h1v58.88z" /><path class="s3" d="m265.99 198.06v-1h58.88v1h-58.88z" /><text style="transform: matrix(1,0,0,1,301,188)" ><tspan x="0" y="0" class="t4">(</tspan><tspan  y="0" class="t4">0</tspan><tspan  y="0" class="t4">,</tspan><tspan  y="0" class="t4">0</tspan><tspan  y="0" class="t4">)</tspan><tspan  y="0" class="t4">
</tspan></text></g><g ><path class="s0" d="m39 304h107v70h-107v-70zm0 0h107v70h-107v-70z" /><text style="transform: matrix(1,0,0,1,41,315)" ><tspan x="0" y="0" class="t1">(</tspan><tspan  y="0" class="t1">0</tspan><tspan  y="0" class="t1">,</tspan><tspan  y="0" class="t1">0</tspan><tspan  y="0" class="t1">)</tspan><tspan  y="0" class="t1">
</tspan><tspan x="0" y="14.4" class="t1">1</tspan><tspan  y="14.4" class="t1">2</tspan><tspan  y="14.4" class="t1">8</tspan><tspan  y="14.4" class="t1">0</tspan><tspan  y="14.4" class="t1">x</tspan><tspan  y="14.4" class="t1">1</tspan><tspan  y="14.4" class="t1">0</tspan><tspan  y="14.4" class="t1">2</tspan><tspan  y="14.4" class="t1">4</tspan><tspan  y="14.4" class="t1">
</tspan><tspan x="0" y="28.8" class="t1">P</tspan><tspan  y="28.8" class="t1">r</tspan><tspan  y="28.8" class="t1">i</tspan><tspan  y="28.8" class="t1">m</tspan><tspan  y="28.8" class="t1">a</tspan><tspan  y="28.8" class="t1">r</tspan><tspan  y="28.8" class="t1">y
</tspan></text><path class="s2" d="m152 314h64v77h-64v-77zm0 0h64v77h-64v-77z" /><text style="transform: matrix(1,0,0,1,154,325)" ><tspan x="0" y="0" class="t1">(</tspan><tspan  y="0" class="t1">1</tspan><tspan  y="0" class="t1">3</tspan><tspan  y="0" class="t1">0</tspan><tspan  y="0" class="t1">0</tspan><tspan  y="0" class="t1">,</tspan><tspan  y="0" class="t1">2</tspan><tspan  y="0" class="t1">5</tspan><tspan  y="0" class="t1">6</tspan><tspan  y="0" class="t1">)</tspan><tspan  y="0" class="t1">
</tspan><tspan x="0" y="14.4" class="t1">6</tspan><tspan  y="14.4" class="t1">4</tspan><tspan  y="14.4" class="t1">0</tspan><tspan  y="14.4" class="t1">x</tspan><tspan  y="14.4" class="t1">7</tspan><tspan  y="14.4" class="t1">6</tspan><tspan  y="14.4" class="t1">8</tspan><tspan  y="14.4" class="t1">
</tspan></text><path class="s3" d="m39.06 333.01h-1v-58.88h1v58.88z" /><path class="s3" d="m7.99 304.06v-1h58.88v1h-58.88z" /><text style="transform: matrix(1,0,0,1,43,294)" ><tspan x="0" y="0" class="t4">(</tspan><tspan  y="0" class="t4">0</tspan><tspan  y="0" class="t4">,</tspan><tspan  y="0" class="t4">0</tspan><tspan  y="0" class="t4">)</tspan><tspan  y="0" class="t4">
</tspan></text></g></svg>